<svg width="35" height="35" viewBox="0 0 35 35" fill="none" xmlns="http://www.w3.org/2000/svg">
<path d="M17.5 0C7.83475 0 0 7.83475 0 17.5C0 27.1652 7.83475 35 17.5 35C27.1652 35 35 27.1652 35 17.5C35 7.83475 27.1652 0 17.5 0ZM17.5 2.53575C21.3124 2.53575 24.7922 3.962 27.4347 6.30875C25.4931 8.86987 22.5435 10.5752 19.5877 11.7294C17.9145 8.68205 16.0393 5.75009 13.9746 2.95312C15.1294 2.67479 16.3131 2.53468 17.5009 2.53575H17.5ZM11.1335 3.95325C13.0848 6.87225 14.9747 9.57862 16.7011 12.642C12.3349 13.7734 7.40075 14.4524 2.84288 14.4638C3.80363 9.80175 6.93525 5.93075 11.1335 3.95412V3.95325ZM29.0946 8.0395C31.257 10.682 32.4465 13.9867 32.4643 17.4011C29.0028 16.7186 25.5605 16.5401 22.0553 16.8936C21.6615 15.911 21.1838 14.9774 20.7261 13.9711C23.7475 12.7522 26.978 10.6663 29.0946 8.03863V8.0395ZM17.9165 14.9572C18.291 15.7535 18.725 16.5988 19.1327 17.4624C14.259 19.6114 9.07463 22.4831 6.384 27.5179C3.80101 24.6595 2.42445 20.9124 2.54275 17.0616C7.76213 17.0371 12.8853 16.3844 17.9165 14.9572ZM25.8247 19.0374C28.0025 19.0378 30.1711 19.3172 32.2779 19.8686C31.953 21.8953 31.2147 23.8335 30.1087 25.5627C29.0028 27.2918 27.5529 28.7749 25.8493 29.9198C25.046 26.2666 24.2804 22.771 22.9268 19.2465C23.8861 19.1067 24.8544 19.0365 25.8239 19.0365L25.8247 19.0374ZM32.3558 19.3086C32.3452 19.3944 32.3356 19.4784 32.3234 19.5624C32.3356 19.4775 32.3461 19.3935 32.3558 19.3086ZM20.1583 19.9299C21.5373 23.4937 22.6196 27.44 23.3459 31.2804C21.4972 32.0648 19.5091 32.4678 17.5009 32.4651C14.174 32.4699 10.9412 31.361 8.31775 29.3151C11.0276 24.9191 15.225 21.5924 20.1574 19.9307L20.1583 19.9299Z" fill="white"/>
</svg>
